<svg width="162" height="84" viewBox="0 0 162 84" fill="none" xmlns="http://www.w3.org/2000/svg">
<path d="M68.2559 12.5918C71.3809 16.3516 73.7002 20.7705 75.2139 25.8486C76.7764 30.8779 77.5576 36.1514 77.5576 41.6689C77.5576 48.3096 76.6055 54.2666 74.7012 59.54C72.7969 64.7646 70.1846 69.1104 66.8643 72.5771C63.4463 76.1416 59.3936 78.8271 54.7061 80.6338C50.0186 82.4404 44.7939 83.3438 39.0322 83.3438C32.7334 83.3438 27.1182 82.2939 22.1865 80.1943C17.2549 78.0947 13.251 75.2139 10.1748 71.5518C6.95215 67.7432 4.53516 63.2998 2.92383 58.2217C1.36133 53.0947 0.580078 47.5771 0.580078 41.6689C0.580078 35.8584 1.33691 30.5117 2.85059 25.6289C4.41309 20.7461 6.83008 16.3271 10.1016 12.3721C13.2266 8.56348 17.2549 5.56055 22.1865 3.36328C27.1182 1.16602 32.7578 0.0673828 39.1055 0.0673828C45.7949 0.0673828 51.5322 1.19043 56.3174 3.43652C61.1025 5.68262 65.082 8.73438 68.2559 12.5918ZM61.3711 41.6689C61.3711 30.0479 59.3691 21.0391 55.3652 14.6426C51.4102 8.24609 46.0146 5.04785 39.1787 5.04785C32.2451 5.04785 26.7764 8.24609 22.7725 14.6426C18.7686 21.0391 16.7666 30.0479 16.7666 41.6689C16.7666 52.7041 18.6709 61.5908 22.4795 68.3291C26.3369 75.0186 31.8545 78.3633 39.0322 78.3633C46.21 78.3633 51.7275 75.0186 55.585 68.3291C59.4424 61.5908 61.3711 52.7041 61.3711 41.6689ZM161.859 81H93.2314V71.0391C94.5498 69.5254 96.3809 67.8408 98.7246 65.9854C101.068 64.0811 103.852 62.0303 107.074 59.833C109.027 58.5146 111.371 57.0742 114.105 55.5117C116.84 53.9492 119.94 52.2402 123.407 50.3848C127.265 48.334 130.219 46.5273 132.27 44.9648C134.369 43.4023 136.273 41.4736 137.982 39.1787C139.105 37.665 140.009 35.7852 140.692 33.5391C141.376 31.2441 141.718 27.9971 141.718 23.7979C141.718 17.6943 140.082 13.2266 136.811 10.3945C133.539 7.51367 129.34 6.07324 124.213 6.07324C121.039 6.07324 118.036 6.70801 115.204 7.97754C112.372 9.19824 110.248 10.9072 108.832 13.1045C109.174 14.667 109.589 16.5225 110.077 18.6709C110.614 20.8193 110.883 22.9189 110.883 24.9697C110.883 26.8252 110.102 28.4854 108.539 29.9502C107.025 31.3662 104.755 32.0742 101.728 32.0742C99.2861 32.0742 97.4062 31.2441 96.0879 29.584C94.7695 27.875 94.1104 25.6045 94.1104 22.7725C94.1104 20.1357 94.8428 17.499 96.3076 14.8623C97.7725 12.1768 99.8721 9.71094 102.606 7.46484C105.292 5.26758 108.612 3.48535 112.567 2.11816C116.522 0.750977 120.795 0.0673828 125.385 0.0673828C135.395 0.0673828 143.329 2.31348 149.188 6.80566C155.097 11.249 158.051 17.2061 158.051 24.6768C158.051 28.2412 157.514 31.4883 156.439 34.418C155.414 37.3477 153.729 39.9355 151.386 42.1816C148.798 44.6719 145.771 46.8203 142.304 48.627C138.837 50.3848 133.539 52.8506 126.41 56.0244C122.162 57.9287 118.207 59.9307 114.545 62.0303C110.883 64.0811 107.88 66.083 105.536 68.0361H161.859V81Z" fill="#01996D" fill-opacity="0.2"/>
</svg>
