<svg width="161" height="108" viewBox="0 0 161 108" fill="none" xmlns="http://www.w3.org/2000/svg">
<path d="M68.2686 12.5918C71.3936 16.3516 73.7129 20.7705 75.2266 25.8486C76.7891 30.8779 77.5703 36.1514 77.5703 41.6689C77.5703 48.3096 76.6182 54.2666 74.7139 59.54C72.8096 64.7646 70.1973 69.1104 66.877 72.5771C63.459 76.1416 59.4062 78.8271 54.7188 80.6338C50.0312 82.4404 44.8066 83.3438 39.0449 83.3438C32.7461 83.3438 27.1309 82.2939 22.1992 80.1943C17.2676 78.0947 13.2637 75.2139 10.1875 71.5518C6.96484 67.7432 4.54785 63.2998 2.93652 58.2217C1.37402 53.0947 0.592773 47.5771 0.592773 41.6689C0.592773 35.8584 1.34961 30.5117 2.86328 25.6289C4.42578 20.7461 6.84277 16.3271 10.1143 12.3721C13.2393 8.56348 17.2676 5.56055 22.1992 3.36328C27.1309 1.16602 32.7705 0.0673828 39.1182 0.0673828C45.8076 0.0673828 51.5449 1.19043 56.3301 3.43652C61.1152 5.68262 65.0947 8.73438 68.2686 12.5918ZM61.3838 41.6689C61.3838 30.0479 59.3818 21.0391 55.3779 14.6426C51.4229 8.24609 46.0273 5.04785 39.1914 5.04785C32.2578 5.04785 26.7891 8.24609 22.7852 14.6426C18.7812 21.0391 16.7793 30.0479 16.7793 41.6689C16.7793 52.7041 18.6836 61.5908 22.4922 68.3291C26.3496 75.0186 31.8672 78.3633 39.0449 78.3633C46.2227 78.3633 51.7402 75.0186 55.5977 68.3291C59.4551 61.5908 61.3838 52.7041 61.3838 41.6689ZM120.856 107.733C116.267 107.733 112.067 107.147 108.259 105.976C104.45 104.853 101.179 103.314 98.4443 101.361C95.71 99.4082 93.5859 97.1621 92.0723 94.623C90.6074 92.084 89.875 89.4717 89.875 86.7861C89.875 84.3936 90.4609 82.2451 91.6328 80.3408C92.8047 78.3877 94.6846 77.4111 97.2725 77.4111C100.202 77.4111 102.424 78.1436 103.938 79.6084C105.5 81.0244 106.281 82.6602 106.281 84.5156C106.281 86.0781 106.013 88.0557 105.476 90.4482C104.987 92.8408 104.597 94.5498 104.304 95.5752C104.646 96.0146 105.256 96.6006 106.135 97.333C107.062 98.0654 108.186 98.7246 109.504 99.3105C111.066 100.043 112.702 100.629 114.411 101.068C116.12 101.508 118.537 101.728 121.662 101.728C124.592 101.728 127.399 101.239 130.085 100.263C132.819 99.2861 135.212 97.7236 137.263 95.5752C139.411 93.3291 141.071 90.6924 142.243 87.665C143.464 84.6865 144.074 80.7559 144.074 75.873C144.074 73.2363 143.781 70.624 143.195 68.0361C142.658 65.4482 141.633 63.2021 140.119 61.2979C138.605 59.3936 136.53 57.9287 133.894 56.9033C131.306 55.8291 128.01 55.292 124.006 55.292H114.411V46.8691H120.783C127.521 46.8691 132.38 45.0137 135.358 41.3027C138.337 37.5918 139.826 32.001 139.826 24.5303C139.826 18.4268 138.386 13.8369 135.505 10.7607C132.624 7.63574 128.547 6.07324 123.273 6.07324C120.734 6.07324 118.635 6.39062 116.975 7.02539C115.363 7.61133 114.045 8.19727 113.02 8.7832C111.799 9.4668 110.798 10.2236 110.017 11.0537C109.235 11.8838 108.649 12.4941 108.259 12.8848C108.601 14.4473 109.016 16.376 109.504 18.6709C109.992 20.917 110.236 23.0654 110.236 25.1162C110.236 26.9229 109.455 28.5586 107.893 30.0234C106.379 31.4395 104.133 32.1475 101.154 32.1475C98.5664 32.1475 96.6621 31.2197 95.4414 29.3643C94.2695 27.5088 93.6836 25.3604 93.6836 22.9189C93.6836 20.3799 94.3916 17.792 95.8076 15.1553C97.2236 12.5186 99.3232 10.0527 102.106 7.75781C104.89 5.46289 108.283 3.60742 112.287 2.19141C116.291 0.775391 120.905 0.0673828 126.13 0.0673828C132.136 0.0673828 137.092 0.970703 140.998 2.77734C144.953 4.53516 148.054 6.68359 150.3 9.22266C152.497 11.7129 154.011 14.3252 154.841 17.0596C155.671 19.7939 156.086 22.1377 156.086 24.0908C156.086 26.5322 155.744 28.998 155.061 31.4883C154.377 33.9297 153.254 36.2002 151.691 38.2998C149.982 40.5947 147.712 42.6943 144.88 44.5986C142.097 46.4541 138.581 47.9678 134.333 49.1396V50.3115C137.067 50.5557 139.973 51.166 143.049 52.1426C146.174 53.1191 148.981 54.5596 151.472 56.4639C154.06 58.4658 156.184 61.0537 157.844 64.2275C159.504 67.3525 160.334 71.332 160.334 76.166C160.334 85.541 156.574 93.1338 149.055 98.9443C141.535 104.804 132.136 107.733 120.856 107.733Z" fill="#01996D" fill-opacity="0.2"/>
</svg>
